<?xml version="1.0" encoding="utf-8"?>
<!-- Generator: Adobe Illustrator 24.3.0, SVG Export Plug-In . SVG Version: 6.00 Build 0)  -->
<svg version="1.1" id="Layer_1" xmlns="http://www.w3.org/2000/svg" xmlns:xlink="http://www.w3.org/1999/xlink" x="0px" y="0px"
	 viewBox="0 0 447.77 164.85" style="enable-background:new 0 0 447.77 164.85;" xml:space="preserve">
<style type="text/css">
	.st0{fill:#FFFFFF;}
	.st1{font-family:'BebasNeueBold';}
	.st2{font-size:72px;}
	.st3{letter-spacing:18;}
</style>
<g>
	<path class="st0" d="M293.75,35.34c5.39,5.83,11.37,9.98,17.62,13.79c-0.1,0.2-0.21,0.4-0.31,0.6c-2.03-0.83-4.09-1.59-6.08-2.51
		c-6.99-3.22-12.87-7.94-18.14-13.5c-1-1.05-2.3-1.94-3.63-2.55c-6.45-2.95-12.98-5.72-19.43-8.67c-2.16-0.99-4.16-2.33-6.26-3.47
		c-1.05-0.57-2.11-1.29-3.24-1.48c-1.25-0.21-2.59,0.1-3.88,0.19c0.14,1.03,0.13,2.11,0.44,3.09c0.84,2.68,0.44,5.25-0.64,7.7
		c-1.66,3.77-0.79,6.78,2.26,9.39c1.63,1.39,3.14,2.92,4.97,4.64c-3.97,0.72-1.18,4.3-3.16,5.85c0.14,0.17,0.28,0.35,0.42,0.52
		c0.84-0.46,1.67-0.92,2.99-1.64c1.83,3.47,3.68,6.98,5.53,10.49c-0.2,0.18-0.41,0.37-0.61,0.55c-1.2-0.93-2.4-1.87-3.62-2.78
		c-1.03-0.76-2.03-1.57-3.14-2.18c-1.17-0.64-2.59-1.5-3.65-0.03c-1.06,1.47-1.22,3.21,0.36,4.52c2.64,2.19,5.11,4.76,8.11,6.29
		c4.9,2.5,6.8,6.43,7.62,11.51c0.6,3.67,1.79,7.24,2.85,11.38c-0.83-0.49-1.59-0.72-2.04-1.23c-1.11-1.26-2.16-2.58-3.07-3.98
		c-3.04-4.68-6.83-8.57-11.44-11.76c-1.73-1.19-3.03-3.01-4.5-4.56c-0.62-0.66-1.17-1.39-2.22-2.64c0,4.01,0,7.25,0,11.25
		c-0.7-1.22-1.16-1.82-1.41-2.5c-2.07-5.82-5.89-10.35-10.44-14.36c-0.96-0.84-1.89-1.72-2.85-2.56c-2.3-2-3.93-4.18-3.87-7.56
		c0.04-2.07-0.9-4.18-1.47-6.25c-0.86-3.13-1.48-6.38-2.79-9.32c-1.06-2.38-2.5-5.23-4.6-6.4c-8.9-4.94-15.31-12.7-22.87-19.14
		c-0.3-0.26-0.6-0.52-0.93-0.74c-0.12-0.08-0.3-0.07-0.55-0.12c-0.72,1.46-1.27,3.06-2.21,4.39c-1.36,1.91-2.83,3.83-4.58,5.38
		c-2.31,2.04-3.81,4.2-3.49,7.43c0.07,0.67-0.54,1.96-0.98,2.02c-1.94,0.29-2.65,1.7-3.29,3.14c-2.07,4.66-4.25,9.29-3.95,14.6
		c0.04,0.75-0.19,1.52-0.58,2.31c-2.6-4-2.84-8.73-4.31-13.36c-4.16,5.12-8.16,9.99-12.04,14.94c-0.37,0.48-0.29,1.59-0.02,2.24
		c2.07,5.02,2.47,10.06,0.31,15.11c-2.02,4.71-5.26,5.48-8.84,1.93c-3.51-3.48-6.73-7.24-10.03-10.93c-2.96-3.3-4.59-3.82-8.21-1.2
		c-5.96,4.29-11.61,8.99-17.46,13.43c-3.81,2.9-7.71,5.68-11.61,8.47c-1.03,0.74-2.15,1.45-3.34,1.85
		c-1.21,0.41-2.56,0.41-3.86,0.59c-0.1-1.22-0.2-2.43-0.3-3.65c-0.12-1.44-0.23-2.88-0.35-4.32c-1.41,0.39-3.04,0.46-4.2,1.22
		c-4.12,2.73-8.27,5.47-12.05,8.65c-3.35,2.82-6.94,4.64-11.24,5.33c-5.96,0.95-11.84,2.64-18.44,1.9c1.59-1.15,2.87-2.14,4.21-3.04
		c3.12-2.08,6.26-4.11,9.4-6.16c1-0.65,1.96-1.39,3.01-1.94c4.01-2.1,8.08-4.08,12.05-6.25c1.3-0.71,2.74-1.61,3.5-2.81
		c3.03-4.76,7.81-7.32,12.27-10.33c2.48-1.68,4.74-3.67,7.26-5.27c4.75-3.02,9.59-5.9,14.45-8.75c3.55-2.09,7.18-4.04,10.77-6.05
		c0.14-0.08,0.27-0.17,0.4-0.26c6.32-3.99,12.65-7.95,18.94-11.96c5.2-3.32,10.29-6.81,15.56-10c4.18-2.53,8.51-4.83,12.87-7.03
		c4.47-2.25,9.04-4.29,13.61-6.33c0.81-0.36,1.96-0.65,2.71-0.36c5.85,2.3,11.64,4.72,16.75,8.52c4.64,3.45,9.39,6.74,14.15,10.02
		c0.48,0.33,1.42,0.29,2.02,0.07c2.13-0.78,3.92-2.57,6.6-1.57c0.75,0.28,1.96-0.49,2.89-0.94c1.43-0.69,2.82-1.48,4.19-2.3
		c8.4-5.03,13.55-4.65,21.23,1.49c0.83,0.66,1.92,1.09,2.95,1.4c5.94,1.81,11.92,3.5,17.84,5.37c1.65,0.52,3.12,1.59,4.72,2.27
		c5.04,2.15,10.22,4,15.13,6.41c5,2.45,10.21,4.85,14.5,8.3c5.23,4.21,10.98,6.85,17.18,9c4.81,1.67,8.35,5.13,11.59,8.98
		c2.82,3.36,5.63,6.82,8.92,9.67c3.28,2.84,7.1,5.07,10.79,7.4c3.41,2.16,7.02,4,10.45,6.14c3.28,2.05,6.44,4.31,9.99,6.71
		c-2.31-0.3-4.46-0.42-6.55-0.87c-3.03-0.66-6.06-1.42-9.01-2.39c-2-0.66-3.97-1.56-5.76-2.67c-7.14-4.43-12.84-10.46-18.27-16.78
		c-2.96-3.45-6.48-5.98-11-7.25c-5.93-1.67-10.78-5.42-15.73-8.93c-2.71-1.92-5.69-3.46-8.48-5.28c-1.59-1.04-3.13-2.21-4.54-3.5
		C301.61,36.71,298.03,35.99,293.75,35.34z"/>
	<text transform="matrix(1 0 0 1 27.2856 146.7418)" class="st0 st1 st2 st3">Rainydays</text>
	<path class="st0" d="M447.77,162.07c-10.08,0.24-20.15,0.53-30.23,0.7c-34.68,0.55-69.36,1.06-104.04,1.57
		c-11.91,0.17-23.82,0.37-35.73,0.41c-26.27,0.09-52.54,0.13-78.81,0.1c-20.53-0.03-41.05-0.14-61.57-0.34
		c-22.51-0.22-45.03-0.51-67.54-0.88c-19.2-0.32-38.4-0.78-57.6-1.19c-4.08-0.09-8.16-0.24-12.24-0.37
		c0.02-0.22,0.05-0.44,0.07-0.66c8.61-0.14,17.21-0.32,25.82-0.41c18.6-0.2,37.21-0.36,55.81-0.53c19.3-0.18,38.6-0.45,57.9-0.5
		c45.93-0.13,91.85-0.19,137.78-0.19c23.39,0,46.79,0.19,70.18,0.35c17.82,0.12,35.64,0.3,53.47,0.52
		c15.56,0.2,31.11,0.5,46.67,0.75C447.72,161.63,447.74,161.85,447.77,162.07z"/>
</g>
</svg>
