<svg xmlns="http://www.w3.org/2000/svg" viewBox="0 0 148.92 69.43"><defs><style>.cls-1{font-size:34px;font-family:BebasNeueBold, Bebas Neue;letter-spacing:0.1em;}.cls-1,.cls-4{fill:#fff;}.cls-2{letter-spacing:0.1em;}.cls-3{letter-spacing:0.09em;}</style></defs><g id="Line"><text class="cls-1" transform="translate(2.76 63.34)">RAINY<tspan class="cls-2" x="78.95" y="0">D</tspan><tspan x="96.18" y="0">A</tspan><tspan class="cls-3" x="113.42" y="0">Y</tspan><tspan x="130.05" y="0">S</tspan></text><path class="cls-4" d="M107.12,15.56a35,35,0,0,0,7.76,6.08l-.14.26c-.89-.36-1.8-.7-2.67-1.1a26.08,26.08,0,0,1-8-6,5.31,5.31,0,0,0-1.6-1.12c-2.84-1.29-5.72-2.52-8.56-3.81-1-.44-1.83-1-2.76-1.53a5.08,5.08,0,0,0-1.42-.66A7.61,7.61,0,0,0,88,7.82a7.68,7.68,0,0,0,.19,1.36,4.72,4.72,0,0,1-.28,3.39,3.22,3.22,0,0,0,1,4.14c.72.61,1.38,1.28,2.19,2-1.75.32-.52,1.89-1.39,2.57l.18.23,1.32-.72,2.43,4.62-.27.24c-.53-.41-1-.83-1.59-1.22a11.86,11.86,0,0,0-1.39-1c-.51-.29-1.14-.66-1.6,0a1.37,1.37,0,0,0,.15,2,21.26,21.26,0,0,0,3.58,2.76,6.21,6.21,0,0,1,3.35,5.07c.26,1.62.79,3.19,1.26,5a3.5,3.5,0,0,1-.9-.54A14.3,14.3,0,0,1,94.9,36a18.41,18.41,0,0,0-5-5.18,13.05,13.05,0,0,1-2-2c-.27-.29-.51-.61-1-1.16v4.95a8.72,8.72,0,0,1-.61-1.1,15.32,15.32,0,0,0-4.6-6.32c-.43-.37-.84-.76-1.26-1.13a4.13,4.13,0,0,1-1.71-3.33A10.15,10.15,0,0,0,78.07,18a29.42,29.42,0,0,0-1.23-4.1,6,6,0,0,0-2-2.82C70.89,8.92,68.07,5.5,64.74,2.66a4.47,4.47,0,0,0-.41-.32s-.13,0-.24-.06a12.94,12.94,0,0,1-1,1.93,13.48,13.48,0,0,1-2,2.37,3.66,3.66,0,0,0-1.54,3.27c0,.3-.24.87-.43.9-.86.12-1.17.75-1.45,1.38-.91,2-1.87,4.09-1.74,6.43a2.07,2.07,0,0,1-.25,1c-1.15-1.76-1.26-3.85-1.9-5.88C52,16,50.2,18.09,48.48,20.28a1.19,1.19,0,0,0,0,1,8.26,8.26,0,0,1,.13,6.66c-.89,2.07-2.32,2.41-3.89.85s-3-3.19-4.42-4.81c-1.3-1.46-2-1.68-3.62-.53-2.62,1.89-5.11,4-7.69,5.91-1.67,1.28-3.39,2.51-5.11,3.73a5.59,5.59,0,0,1-1.47.82,9.44,9.44,0,0,1-1.69.26c0-.54-.09-1.08-.14-1.61l-.15-1.9a6.41,6.41,0,0,0-1.85.54A57.44,57.44,0,0,0,13.27,35a9.79,9.79,0,0,1-4.95,2.35c-2.62.42-5.21,1.16-8.12.84.7-.51,1.26-.94,1.86-1.34C3.43,35.92,4.82,35,6.2,34.12c.44-.29.86-.61,1.32-.86,1.77-.92,3.56-1.8,5.31-2.75a4,4,0,0,0,1.54-1.24c1.34-2.09,3.44-3.22,5.41-4.55C20.87,24,21.86,23.11,23,22.4c2.1-1.33,4.23-2.6,6.37-3.85,1.56-.92,3.16-1.78,4.74-2.67l.18-.11C37,14,39.83,12.27,42.6,10.5c2.29-1.46,4.53-3,6.86-4.4C51.3,5,53.2,4,55.13,3s4-1.89,6-2.79A1.75,1.75,0,0,1,62.31.05,31.47,31.47,0,0,1,69.69,3.8c2,1.52,4.13,3,6.23,4.42a1.18,1.18,0,0,0,.89,0c.94-.35,1.73-1.13,2.9-.7.33.13.87-.21,1.28-.41.63-.31,1.24-.65,1.84-1,3.7-2.22,6-2,9.35.65a3.9,3.9,0,0,0,1.3.62c2.62.8,5.25,1.54,7.86,2.36.72.23,1.37.7,2.08,1,2.22,1,4.5,1.77,6.66,2.83a32.88,32.88,0,0,1,6.38,3.65,24.52,24.52,0,0,0,7.57,4,11.9,11.9,0,0,1,5.1,3.95,37.86,37.86,0,0,0,3.93,4.26,39.91,39.91,0,0,0,4.75,3.26c1.51,1,3.1,1.76,4.61,2.71s2.83,1.9,4.4,3c-1-.13-2-.18-2.89-.38a38.51,38.51,0,0,1-4-1.06,11.25,11.25,0,0,1-2.54-1.17,35.58,35.58,0,0,1-8.05-7.39,9.7,9.7,0,0,0-4.84-3.19c-2.61-.74-4.75-2.39-6.93-3.94-1.2-.84-2.51-1.52-3.74-2.32a15,15,0,0,1-2-1.55C110.59,16.17,109,15.85,107.12,15.56Z"/><path class="cls-4" d="M147,67.28c-3.31.08-6.62.18-9.93.24l-34.16.53c-3.91,0-7.82.12-11.73.14q-12.93,0-25.87,0-10.11,0-20.22-.12Q34,68,22.93,67.81c-6.3-.11-12.61-.27-18.91-.4-1.34,0-2.68-.09-4-.13l0-.22c2.83,0,5.65-.11,8.48-.14l18.32-.18c6.34-.06,12.68-.15,19-.16q22.6-.08,45.23-.07c7.68,0,15.36.07,23.05.12q8.77.06,17.55.18c5.11.06,10.22.17,15.32.25Z"/></g></svg>